<svg style="display: block" xmlns="http://www.w3.org/2000/svg" width="178" height="30" viewBox="0 0 178 30" fill="none"><path d="M22.3936 1.23909V19.218L0 0.80011V28.78H5.14501V10.992L27.5386 29.1999V1.23909H22.3936Z" fill="#0C0C0B"></path><path d="M40.411 1.23909H35.0097V28.78H40.411V1.23909Z" fill="#0C0C0B"></path><path d="M71.2417 1.23909L60.7742 20.0769L50.4645 1.39177L50.3857 1.23909H44.6295L60.794 29.1808L76.9189 1.23909H71.2417Z" fill="#0C0C0B"></path><path d="M94.1478 0.857368C90.1631 0.805111 86.3157 2.26635 83.4304 4.92786C80.5452 7.58938 78.8516 11.2394 78.7128 15.0954C78.956 18.8965 80.687 22.4648 83.5531 25.0731C86.4191 27.6815 90.2045 29.1336 94.138 29.1336C98.0714 29.1336 101.857 27.6815 104.723 25.0731C107.589 22.4648 109.32 18.8965 109.563 15.0954C109.424 11.2427 107.734 7.5956 104.853 4.93461C101.972 2.27362 98.1292 0.810141 94.1478 0.857368ZM94.1478 24.7911C92.8333 24.7914 91.532 24.5372 90.3205 24.0434C89.109 23.5495 88.0118 22.8261 87.0934 21.9155C86.175 21.005 85.4539 19.9258 84.9728 18.7414C84.4916 17.557 84.2599 16.2914 84.2915 15.0191C84.2915 12.4882 85.3299 10.0609 87.1784 8.27122C89.0268 6.48157 91.5338 5.47615 94.1478 5.47615C96.7619 5.47615 99.2689 6.48157 101.117 8.27122C102.966 10.0609 104.004 12.4882 104.004 15.0191C104.036 16.2914 103.804 17.557 103.323 18.7414C102.842 19.9258 102.121 21.005 101.202 21.9155C100.284 22.8261 99.1867 23.5495 97.9752 24.0434C96.7636 24.5372 95.4623 24.7914 94.1478 24.7911Z" fill="#0C0C0B"></path><path d="M125.767 1.23909H115.911V28.78H125.767C137.338 28.78 143.706 23.894 143.706 15C143.706 6.10599 137.338 1.23909 125.767 1.23909ZM125.767 24.5239H121.194V5.5525H125.708C133.869 5.5525 138.344 8.9307 138.344 15.0954C138.344 21.2602 133.869 24.5239 125.708 24.5239H125.767Z" fill="#0C0C0B"></path><path d="M161.033 0.838281L145.164 28.341L144.908 28.78H150.585L154.686 21.3938H167.361L171.303 28.6273V28.78H177.04L161.033 0.838281ZM157.09 17.1758L161.033 9.94225L164.976 17.1758H157.09Z" fill="#0C0C0B"></path><path d="M44.6295 1.23909L60.794 29.1808L76.9189 1.23909H44.6295Z" fill="#0C0C0B"></path><path d="M94.1478 29.1427C102.672 29.1427 109.583 22.8108 109.583 15C109.583 7.18924 102.672 0.857368 94.1478 0.857368C85.6233 0.857368 78.7128 7.18924 78.7128 15C78.7128 22.8108 85.6233 29.1427 94.1478 29.1427Z" fill="#0C0C0B"></path></svg>